# xmcd CD database file
#
# Track frame offsets:
#	187
#	5937
#	32765
#	53395
#	71150
#	88955
#	106695
#	124007
#	137112
#	152135
#	169940
#
# Disc length: 2563 seconds
#
# Revision: 2
# Processed by: cddbd v1.5.2PL0 Copyright (c) Steve Scherf et al.
# Submitted via: CDex 1.60beta1-cs1
#
DISCID=930a010b
DTITLE=櫻井智 - マクロス7-Mylene Jenius sings Lynn Minmay-
DYEAR=1900
DGENRE=Pop
TTITLE0=Prologue
TTITLE1=愛・おぼえていますか
TTITLE2=0-G Love
TTITLE3=SUNSET BEACH
TTITLE4=マイ・ビューティフル・プレイス
TTITLE5=小白竜 (シャオパイロン)
TTITLE6=やさしさSAYONARA
TTITLE7=私の彼はパイロット
TTITLE8=シルバームーン・レッドムーン
TTITLE9=愛は流れる
TTITLE10=あなたへのLOVE SONG
EXTD=
EXTT0=
EXTT1=
EXTT2=
EXTT3=
EXTT4=
EXTT5=
EXTT6=
EXTT7=
EXTT8=
EXTT9=
EXTT10=
PLAYORDER=
